<svg width="16" height="16" viewBox="0 0 16 16" fill="none" xmlns="http://www.w3.org/2000/svg">
<path d="M11.7544 5.96159C11.6916 5.96159 11.6288 5.94903 11.566 5.9239C11.3273 5.81711 11.2205 5.54071 11.321 5.302C11.4403 5.03188 11.3712 4.63613 11.1514 4.30948C10.9315 3.97654 10.5986 3.7504 10.2971 3.76924C10.0207 3.76924 9.82592 3.56194 9.81964 3.30439C9.81964 3.04055 10.0269 2.83325 10.2845 2.82697C10.9315 2.81441 11.5409 3.18503 11.9366 3.7818C12.3386 4.38486 12.4329 5.10727 12.1879 5.67263C12.1125 5.8548 11.9366 5.96159 11.7544 5.96159Z" fill="white"/>
<path d="M13.7083 6.58283C13.6643 6.58283 13.6266 6.57655 13.5826 6.56399C13.3313 6.49489 13.1869 6.23733 13.256 5.98606C13.4947 5.13174 13.2937 4.11408 12.722 3.25976C12.1504 2.40543 11.2835 1.83379 10.3977 1.72699C10.1402 1.69559 9.95801 1.46316 9.98942 1.2056C10.0208 0.94805 10.2595 0.759596 10.5108 0.797287C11.6604 0.935487 12.7785 1.66418 13.501 2.74465C14.2234 3.82512 14.4684 5.13174 14.1605 6.2499C14.104 6.44463 13.9156 6.58283 13.7083 6.58283Z" fill="white"/>
<path d="M10.7572 7.39929C10.7572 7.58774 10.6001 7.74479 10.4117 7.74479H2.15739C1.96893 7.74479 1.81189 7.58774 1.81189 7.39929C1.81189 7.21083 1.96893 7.05379 2.15739 7.05379H2.62224L2.79813 6.22459C2.96146 5.42052 3.30696 4.68555 4.67639 4.68555H7.89896C9.2684 4.68555 9.60761 5.4268 9.77722 6.22459L9.95311 7.05379H10.418C10.6001 7.05379 10.7572 7.21083 10.7572 7.39929Z" fill="white"/>
<path d="M10.9512 9.99361C10.8821 9.2398 10.6811 8.42944 9.21117 8.42944H3.35652C1.88658 8.42944 1.68556 9.2398 1.61646 9.99361L1.35891 12.789C1.3275 13.1345 1.44057 13.4863 1.67928 13.7501C1.92427 14.014 2.26349 14.1647 2.63411 14.1647H3.49472C4.23597 14.1647 4.38046 13.7376 4.47468 13.4612L4.56891 13.1848C4.6757 12.8707 4.70083 12.789 5.11543 12.789H7.46483C7.87942 12.789 7.89199 12.833 8.01134 13.1848L8.10557 13.4612C8.1998 13.7439 8.338 14.1647 9.08553 14.1647H9.94614C10.3105 14.1647 10.656 14.014 10.901 13.7501C11.1397 13.4863 11.2528 13.1408 11.2213 12.789L10.9512 9.99361ZM4.90813 10.9484H3.53241C3.34396 10.9484 3.18691 10.7914 3.18691 10.6029C3.18691 10.4145 3.34396 10.2574 3.53241 10.2574H4.90813C5.09658 10.2574 5.25363 10.4145 5.25363 10.6029C5.25363 10.7914 5.09658 10.9484 4.90813 10.9484ZM9.03528 10.9484H7.65956C7.47111 10.9484 7.31406 10.7914 7.31406 10.6029C7.31406 10.4145 7.47111 10.2574 7.65956 10.2574H9.03528C9.22373 10.2574 9.38078 10.4145 9.38078 10.6029C9.38078 10.7914 9.22373 10.9484 9.03528 10.9484Z" fill="white"/>
</svg>
