<svg width="12" height="9" viewBox="0 0 12 9" fill="none" xmlns="http://www.w3.org/2000/svg">
<path d="M11.3827 4.18317L7.96713 0.765146C7.90131 0.713873 7.81908 0.688452 7.73588 0.69366C7.65268 0.698868 7.57424 0.734346 7.5153 0.793429C7.45635 0.852512 7.42096 0.931135 7.41576 1.01453C7.41057 1.09792 7.43593 1.18035 7.48708 1.24632L10.3177 4.08361H0.788396C0.697664 4.08361 0.610648 4.11974 0.54649 4.18405C0.482332 4.24835 0.446289 4.33557 0.446289 4.42652C0.446289 4.51746 0.482332 4.60468 0.54649 4.66899C0.610648 4.7333 0.697664 4.76943 0.788396 4.76943H10.3122L7.48708 7.60118C7.44877 7.63103 7.41723 7.6687 7.39456 7.71169C7.37188 7.75469 7.35859 7.80203 7.35557 7.85057C7.35254 7.89911 7.35986 7.94773 7.37702 7.99322C7.39418 8.03871 7.4208 8.08002 7.4551 8.11441C7.48941 8.1488 7.53063 8.17548 7.57601 8.19268C7.62139 8.20988 7.66991 8.21721 7.71833 8.21418C7.76676 8.21115 7.81399 8.19783 7.85688 8.1751C7.89978 8.15238 7.93736 8.12076 7.96713 8.08236L11.3827 4.65881C11.4441 4.59492 11.4783 4.50968 11.4783 4.42099C11.4783 4.3323 11.4441 4.24706 11.3827 4.18317Z" fill="#FEFEFE"/>
</svg>
